PathFileType	4	(X/Y/Z)	./resultDataOpenSim/trcMotMarkerGrf/sub06/qtm-15-03.trc
DataRate	CameraRate	NumFrames	NumMarkers	Units	OrigDataRate	OrigDataStartFrame	OrigNumFrames
250.000000	250.000000	11	24	m	250.000000	456	521
Frame#	Time	L.Toe.Tip			R.Toe.Tip			L.Ankle.Lat			R.Ankle.Lat			L.Ankle.Med			R.Ankle.Med			L.Heel			R.Heel			L.Knee.Lat			R.Knee.Lat			L.Knee.Med			R.Knee.Med			L.Thigh.Upper			R.Thigh.Upper			L.ASIS			R.ASIS			V.Sacral			L.Acromium			R.Acromium			C7			L.Elbow			R.Elbow			L.Wrist.Lat			R.Wrist.Lat
		X1	Y1	Z1	X2	Y2	Z2	X3	Y3	Z3	X4	Y4	Z4	X5	Y5	Z5	X6	Y6	Z6	X7	Y7	Z7	X8	Y8	Z8	X9	Y9	Z9	X10	Y10	Z10	X11	Y11	Z11	X12	Y12	Z12	X13	Y13	Z13	X14	Y14	Z14	X15	Y15	Z15	X16	Y16	Z16	X17	Y17	Z17	X18	Y18	Z18	X19	Y19	Z19	X20	Y20	Z20	X21	Y21	Z21	X22	Y22	Z22	X23	Y23	Z23	X24	Y24	Z24

456	1.82	1.8042367	0.034096407	-0.048972772	1.0968082	0.067177667	0.10348625	1.67965	0.066247423	-0.072821769	1.1062133	0.207299	0.13915087	1.6789189	0.078832631	0.014002195	1.1522848	0.19275668	0.062908792	1.6028288	0.038532966	-0.030353379	1.0929986	0.25283122	0.071888675	1.7227322	0.44208557	-0.088564379	1.4465027	0.3904342	0.19683136	1.6865288	0.4406272	0.028688112	1.4557079	0.36145341	0.067546964	1.5535936	0.79531595	-0.15790667	1.4384115	0.74844258	0.17056488	1.6072645	0.8366162	-0.094658282	1.5556848	0.80904893	0.14376151	1.391591	0.89234982	-0.00017035408	1.5441396	1.3023359	-0.18122939	1.5272061	1.296767	0.17501835	1.448738	1.3370342	-0.0064857744	1.4148982	1.022078	-0.24193838	1.6401879	0.99568563	0.24610889	1.4572235	0.78997921	-0.30901676	1.827361	1.0420182	0.084215199
457	1.824	1.8041937	0.034068517	-0.049176986	1.1076143	0.069946168	0.10623279	1.6796589	0.066126303	-0.073060279	1.1175113	0.21027633	0.13983858	1.6791167	0.078859842	0.013897809	1.1633728	0.19489953	0.06337421	1.6028082	0.038606995	-0.030314573	1.104317	0.25526731	0.071773666	1.7254832	0.44108364	-0.08954853	1.457999	0.39092806	0.1982579	1.6908555	0.43998089	0.027868589	1.4667266	0.36271762	0.068444016	1.5582735	0.795758	-0.15842924	1.4432639	0.74967713	0.17008923	1.6118862	0.83738547	-0.095731229	1.5611925	0.8102829	0.14327655	1.3963967	0.89306771	-0.00095940916	1.5495676	1.3028173	-0.18142167	1.5325153	1.2972007	0.17505864	1.4540421	1.3378704	-0.0066799493	1.4232796	1.0208326	-0.24255188	1.6414606	0.99415035	0.24641975	1.4688533	0.78919955	-0.30946371	1.8303284	1.0362982	0.085842129
458	1.828	1.8041595	0.034046205	-0.049375964	1.1190509	0.072443088	0.10915575	1.6796506	0.066038671	-0.073374522	1.1289695	0.21312699	0.14051545	1.6792976	0.078908796	0.013765275	1.1747012	0.19703179	0.063865467	1.6027857	0.038699456	-0.030288285	1.1158404	0.25757586	0.071451911	1.7280298	0.44004217	-0.090494457	1.4695012	0.39160876	0.1996022	1.6948375	0.43918331	0.027073808	1.4777193	0.36419546	0.069350163	1.5629329	0.79632467	-0.15891569	1.4482477	0.75107278	0.16964341	1.6165609	0.83821808	-0.096741695	1.5666752	0.81172303	0.14284783	1.4016681	0.89392137	-0.0014022364	1.5548683	1.3034392	-0.181594	1.5377281	1.2977571	0.17506322	1.4592465	1.3387862	-0.0068670722	1.4315926	1.0197645	-0.24304357	1.6425031	0.99279281	0.24673603	1.480676	0.7887175	-0.30980779	1.8331848	1.0305649	0.087638268
459	1.832	1.8041371	0.034032813	-0.049556831	1.1310647	0.074704815	0.11205397	1.6796697	0.065959938	-0.073661338	1.1405665	0.2158379	0.14115284	1.6794737	0.078975758	0.01361195	1.1862567	0.19912276	0.064389269	1.6027634	0.038805414	-0.030273028	1.127479	0.25972065	0.071070758	1.7303925	0.43898978	-0.091368131	1.4810158	0.39246394	0.20084166	1.6984841	0.43828689	0.026326657	1.4887003	0.36580427	0.070269421	1.5676599	0.79701217	-0.15938639	1.4533458	0.75258804	0.16925303	1.6211885	0.8391133	-0.097722462	1.5721823	0.81334112	0.14248809	1.4073435	0.89492857	-0.0015423848	1.5600632	1.3042199	-0.18176348	1.5428369	1.2984444	0.17504113	1.4643668	1.3397879	-0.0070669106	1.4398483	1.0188616	-0.24344059	1.6432772	0.99162749	0.2470684	1.4926666	0.78853839	-0.3100479	1.8359067	1.0248129	0.089601062
460	1.836	1.8041258	0.034026679	-0.04971737	1.143655	0.076876004	0.11460418	1.6797158	0.065864322	-0.073867544	1.1522699	0.21838282	0.14172501	1.6796033	0.079052584	0.013457876	1.1980175	0.20114167	0.064948354	1.6027465	0.038910769	-0.030250451	1.1390421	0.26162808	0.07087261	1.7325965	0.43797012	-0.092137611	1.4925489	0.39350668	0.20197079	1.7017792	0.43734963	0.025645483	1.4996852	0.36748712	0.071203493	1.5724693	0.79780474	-0.15984914	1.4588167	0.75418948	0.16892234	1.6258866	0.84006609	-0.098688314	1.577778	0.81510664	0.1422085	1.4131474	0.89608856	-0.0015698815	1.5651653	1.3051635	-0.18193375	1.5478342	1.2992624	0.17500643	1.4694214	1.340877	-0.007295333	1.448056	1.0181112	-0.24377875	1.6437866	0.99064995	0.24742628	1.504776	0.78864556	-0.31017652	1.8384692	1.0190288	0.091716208
461	1.84	1.8041192	0.034021662	-0.049862643	1.1567943	0.079028618	0.11669313	1.6797516	0.065745819	-0.07401019	1.1640677	0.22073344	0.14222602	1.679563	0.079123927	0.01334916	1.2099505	0.20307163	0.065541416	1.602739	0.039000378	-0.03020284	1.150426	0.26324948	0.07095481	1.7346654	0.43703156	-0.092785808	1.5040851	0.39476196	0.20299598	1.7046908	0.43643402	0.025041822	1.5107169	0.36922161	0.072169426	1.5773015	0.79868821	-0.16029475	1.4649933	0.755836	0.16865786	1.6307141	0.84106969	-0.099631357	1.5834343	0.81698897	0.14199634	1.4187886	0.89738114	-0.0017426214	1.5701848	1.3062645	-0.18209966	1.5527191	1.3002004	0.17497363	1.4744278	1.3420491	-0.0075579429	1.4562117	1.0175085	-0.24408831	1.644095	0.98983867	0.2478171	1.5169621	0.78901832	-0.31018925	1.8408593	1.0132098	0.093971514
462	1.844	1.804108	0.034011687	-0.049998612	1.170389	0.081076083	0.11852038	1.679752	0.065611562	-0.074103749	1.1759962	0.22287063	0.14269012	1.6791814	0.079173821	0.013348281	1.2220189	0.2049104	0.066158404	1.6027392	0.039069409	-0.030137069	1.1616785	0.26459362	0.071224774	1.7366108	0.43621127	-0.093316941	1.5155886	0.39624496	0.20392593	1.7071958	0.4356041	0.024516943	1.5218449	0.37100976	0.073161226	1.5821119	0.79965588	-0.16070819	1.4719964	0.7574763	0.16847531	1.6355918	0.84211878	-0.10052616	1.5890124	0.81896672	0.1418184	1.4241645	0.89877778	-0.0021759484	1.5751345	1.3075137	-0.18225444	1.5575038	1.3012443	0.17495724	1.4794	1.3433018	-0.0078435191	1.4643059	1.0170548	-0.24438108	1.6443111	0.98916996	0.24825012	1.529202	0.78964397	-0.31008958	1.8430742	1.0073705	0.096363154
463	1.848	1.8040852	0.033994399	-0.050127428	1.1843285	0.082887232	0.120345	1.6797185	0.065465847	-0.074134307	1.1881178	0.22477519	0.14317148	1.6784956	0.079213816	0.013463543	1.2342031	0.20665894	0.066789809	1.6027368	0.039122166	-0.030086697	1.1729092	0.26569652	0.071552782	1.7384273	0.43552407	-0.093745416	1.5270206	0.39794892	0.20476926	1.7092841	0.43491584	0.024061144	1.5331031	0.37286186	0.074149763	1.5869051	0.80069198	-0.1610801	1.4797083	0.75907374	0.16838311	1.6404375	0.8432145	-0.10135443	1.5944027	0.82102939	0.14165166	1.4293553	0.90025123	-0.0027591365	1.5800297	1.3089028	-0.18239251	1.5622185	1.3023879	0.1749768	1.4843489	1.3446338	-0.0081238469	1.4723318	1.0167493	-0.24464679	1.6445878	0.98862706	0.2487413	1.5414821	0.79051322	-0.30988835	1.8451096	1.0015323	0.098891763
464	1.852	1.8040509	0.033971662	-0.050246671	1.1985403	0.084413212	0.12227152	1.6796623	0.06531646	-0.07410391	1.2004369	0.22641575	0.14369496	1.6780523	0.079307855	0.013568488	1.2464945	0.20831044	0.067433849	1.6027192	0.039163715	-0.03008731	1.1841946	0.26658281	0.071893004	1.7401019	0.43496212	-0.094083933	1.5383504	0.39984866	0.20553297	1.7109411	0.43440315	0.023658303	1.5444728	0.37478748	0.075099953	1.5916919	0.80176599	-0.16141683	1.4879122	0.76062029	0.16837251	1.6452343	0.84436515	-0.10211869	1.5996186	0.82316788	0.14149363	1.4344828	0.9017743	-0.0032986835	1.5848823	1.3104261	-0.18250864	1.5669173	1.3036401	0.17506374	1.48928	1.3460424	-0.0083726275	1.4802818	1.0165911	-0.24486316	1.6451087	0.98820372	0.2493086	1.5537994	0.79161822	-0.30960532	1.8469488	0.9957142	0.10155257
465	1.856	1.8040098	0.033948347	-0.050352997	1.2129925	0.085687954	0.12426709	1.6795924	0.065187433	-0.074055532	1.2128518	0.22774987	0.14424667	1.6784842	0.079514193	0.013496804	1.2588788	0.20984699	0.068097179	1.6026844	0.039200884	-0.030139026	1.195558	0.26725336	0.072274521	1.7416287	0.43450728	-0.094341386	1.5495651	0.40191468	0.20621721	1.7121528	0.43407422	0.023295884	1.5558524	0.37678721	0.07596555	1.5964572	0.802855	-0.16174054	1.4963903	0.76212663	0.16842306	1.6499953	0.84557887	-0.10283191	1.6047215	0.82536987	0.14133773	1.4396267	0.90333207	-0.0036834204	1.589699	1.3120786	-0.18259956	1.5716604	1.3050152	0.17525217	1.4941913	1.347529	-0.0085858411	1.4881432	1.0165866	-0.24501121	1.6459857	0.98791934	0.24995164	1.5661641	0.79295747	-0.30926376	1.8485686	0.98992966	0.104331
466	1.86	1.8039684	0.033929469	-0.05044586	1.2276697	0.086762282	0.12626349	1.6795135	0.065105857	-0.074037275	1.2252078	0.22874756	0.14481222	1.6796229	0.07978954	0.01325827	1.2713434	0.21124145	0.068797258	1.602645	0.039251651	-0.030205536	1.2069912	0.2676882	0.072745814	1.7430168	0.43414668	-0.094523998	1.5606775	0.40412677	0.20681577	1.7129624	0.43392526	0.022977546	1.5671083	0.37884789	0.076680618	1.6011699	0.80395715	-0.16207445	1.5049483	0.76360789	0.16851043	1.6547301	0.84685847	-0.10350595	1.6097306	0.82762428	0.14115963	1.4448337	0.90493711	-0.0039307254	1.5944822	1.3138505	-0.1826692	1.5764559	1.3065045	0.17553879	1.4990766	1.3490959	-0.0087751213	1.4958934	1.0167435	-0.24507707	1.6470415	0.98784342	0.25061585	1.578585	0.79453376	-0.30887768	1.8499588	0.98418718	0.10720988
